<?xml version="1.0" encoding="UTF-8"?>
<svg version="1.1" viewBox="0 0 1740 1574" width="1280" height="1280" xmlns="http://www.w3.org/2000/svg">
<path transform="translate(1099,429)" d="m0 0h2v309l47-23 91-44 29-14 27-13 10-5h2v314l-19 10-35 17-93 45-62 30-93 45-25 12-39 19-23 11-35 17-29 14-7 3h-5l-5-4-14-7-23-13-23-12-23-13-28-15-24-13-46-25-14-8-1-1v-99h-5l-5-4-14-7-23-13-23-12-23-13-28-15-24-13-46-25-14-8-1-1v-287l2-1 26 11 82 36 75 33 13 6 5-1 23-11 33-16 25-12 39-19 23-11 35-17 62-30 93-45 25-12 39-19 54-26z" fill="#000000"/>
<path transform="translate(436,567)" d="m0 0 16 6 29 13 30 13 36 16 39 17 43 19 11 5v305l-1 4-5-1-22-12-28-15-24-13-14-8-26-14-24-13-46-25-14-8-1-1v-287z" fill="#000000"/>
<path transform="translate(844,867)" d="m0 0h2v306l-1 2-5-1-22-12-28-15-24-13-14-8-26-14-24-13-46-25-14-8-1-1v-100l62-30 62-30 62-30z" fill="#000000"/>
<path transform="translate(1041,820)" d="m0 0h7l8 2 6 4v2l3 1 5 6v2l2 1 6 16 4 20 1 15v44l-3 24-2 10-3 12-3 9-5 14h-2l-1 5-7 12-9 11-4 2v3l-6 2v3l-21 10-6 1h-11l-7-3v-2l-5-2-7-9-1-5-2-1-3-8-4-16-3-25v-38l3-27 5-23 3-9 5-12 8-16 5-7h2v-3l7-6 4-4 6-5 19-9z" fill="#FEFDA8"/>
<path transform="translate(1171,755)" d="m0 0h15l5 2v2l5 2 6 7 3 5 5 11-1 4-7 7-5 6-5 5h-2l-2 4h-2l-2 4-6 7-3 1-1-3-2-1v-3l-3-1-4-4-7 1-6 5-5 10-3 12-3 23v40l2 13 3 12 4 5 6 1 6-2 6-5 5-9 2-8 2-16h-2l-11 5h-3v-39l5-3 24-12 23-11 3 1v45l-2 20-2 8-3 13-3 8-5 12-7 12-5 7h-2l-1 4h-2l-2 4h-2l-2 4-5 2-1 3-16 8-7 2-10 1-9-2-7-4-5-6-6-9-6-19-2-14-2-16v-39l1-12 2-15 3-16 8-24 2-5h2l1-6 4-6 1-3 4-4 1-3 5-5h2l2-4 12-10z" fill="#FEFDA8"/>
<path transform="translate(922,880)" d="m0 0h3v130l1 30 25-12 2 1v48l-22 11-23 11-17 8-3-1v-209l9-5z" fill="#FEFDA8"/>
<path transform="translate(844,665)" d="m0 0h6l8 7 5 13 2 16 1 79v45l-14 7-1-1-1-109-1-14-3-10-2-2h-6l-4 2-2 3h-2l-2 4-9 17-1 3v124l-11 5h-3l-2-119-2-11-3-5h-7l-7 6-1 2h-2l-2 6-7 14v124l-14 7-1-1-1-164 5-4 7-3h3l1 12 8-16h2l2-5 5-5 8-4h6l6 4 4 6 2 7 4-9 8-16 8-10z" fill="#FEFDA8"/>
<path transform="translate(920,628)" d="m0 0h12l8 6 5 11 2 12 1 53v76l-13 6h-1l-1-13-5 8-3 6h-2l-2 5-4 5h-2l-2 4-10 5-9-1-7-6-6-15-2-18 1-21 2-9 3-11 4-9 5-9h2l2-4 6-7h2l2-4 6-4 13-9 5-3v-13l-2-9-2-4-6-1-10 3-6 4-4 3h-2l-2 4-4 4h-2l-2 4-3 3h-2v-28l8-7 4-4 10-7z" fill="#FEFDA8"/>
<path transform="translate(1276,708)" d="m0 0h3v211l-19 9-16 8-2-1v-210l16-8z" fill="#FEFDA8"/>
<path transform="translate(717,674)" d="m0 0h11l7 2 2 2v35h-3l-8-7-6-3h-12l-8 4-3 3h-2l-10 20-2 11v17l2 9 6 8 3 1 27 1 10 5 6 8 4 13 1 7v26l-2 13-5 19-7 16-8 12-8 7-5 4-13 6-13 1-8-2-7-3v-37l3 1 5 5 8 5 7 2 10-1 8-4 5-5 6-9 4-9 2-10v-23l-3-10-4-4-10-2h-17l-8-2-2-1v-2l-4-2-6-9-3-11-1-7v-27l3-19 6-17 2-5h2l1-4 7-11 5-5 5-4 14-7z" fill="#FEFDA8"/>
<path transform="translate(1034,529)" d="m0 0h2v46l10-4 15-7h2v23l-16 8-9 4v101l3 12 2 3h6l6-2 2-4 5-6h2v26l-4 5-4 1-2 4-11 5-7-1-7-6-4-12-2-10-1-64v-44l-6 3h-3v-23l8-4 1-48z" fill="#FEFDA8"/>
<path transform="translate(1026,874)" d="m0 0h7l4 2 4 8 3 15 1 8v39l-3 26-5 13-5 7h-2l-2 4-7 3-6-2-6-10-3-24v-36l2-18 3-15 5-11 6-7z" fill="#000000"/>
<path transform="translate(1009,589)" d="m0 0 2 1v30l-11 4-8 8-5 8-1 3h-2l-1 5-1 3v118l-11 6h-4l-1-130v-35l12-6h3l1 19 8-16 7-10 6-5z" fill="#FEFDA8"/>
<path transform="translate(932,706)" d="m0 0h1v47l-8 16-6 8-8 6-5 1-6-2-3-5-2-8v-17l5-16 4-7 5-6 6-5 8-6z" fill="#000000"/>
</svg>
